<?xml version="1.0" encoding="UTF-8" standalone="no"?>
<svg
   width="507"
   height="389"
   viewBox="0 0 507 389"
   fill="none"
   version="1.1"
   id="svg10379"
   sodipodi:docname="uniconfig-mount.svg"
   inkscape:version="1.2.1 (9c6d41e410, 2022-07-14)"
   xmlns:inkscape="http://www.inkscape.org/namespaces/inkscape"
   xmlns:sodipodi="http://sodipodi.sourceforge.net/DTD/sodipodi-0.dtd"
   xmlns="http://www.w3.org/2000/svg"
   xmlns:svg="http://www.w3.org/2000/svg">
  <defs
     id="defs10383" />
  <sodipodi:namedview
     id="namedview10381"
     pagecolor="#ffffff"
     bordercolor="#000000"
     borderopacity="0.25"
     inkscape:showpageshadow="2"
     inkscape:pageopacity="0.0"
     inkscape:pagecheckerboard="0"
     inkscape:deskcolor="#d1d1d1"
     showgrid="false"
     inkscape:zoom="2.3372781"
     inkscape:cx="181.19367"
     inkscape:cy="194.67089"
     inkscape:window-width="3440"
     inkscape:window-height="1375"
     inkscape:window-x="0"
     inkscape:window-y="804"
     inkscape:window-maximized="1"
     inkscape:current-layer="svg10379" />
  <path
     d="M323.4 106H182.6C172.88 106 165 113.88 165 123.6V158.8C165 168.52 172.88 176.4 182.6 176.4H323.4C333.12 176.4 341 168.52 341 158.8V123.6C341 113.88 333.12 106 323.4 106Z"
     fill="#3282CE"
     stroke="#3282CE"
     stroke-width="2"
     stroke-linecap="round"
     stroke-linejoin="round"
     id="path10365"
     style="stroke:#4842bd;stroke-opacity:1;fill:#4842bd;fill-opacity:1" />
  <path
     d="M323.4 211.6H182.6C172.88 211.6 165 219.48 165 229.2V264.4C165 274.12 172.88 282 182.6 282H323.4C333.12 282 341 274.12 341 264.4V229.2C341 219.48 333.12 211.6 323.4 211.6Z"
     fill="#3282CE"
     stroke="#3282CE"
     stroke-width="2"
     stroke-linecap="round"
     stroke-linejoin="round"
     id="path10367"
     style="stroke:#4842bd;stroke-opacity:1;fill:#4842bd;fill-opacity:1" />
  <path
     d="M200.2 141.2H200.288"
     stroke="#9AE6B4"
     stroke-width="6"
     stroke-linecap="round"
     stroke-linejoin="round"
     id="path10369" />
  <path
     d="M200.2 246.8H200.288"
     stroke="#9AE6B4"
     stroke-width="6"
     stroke-linecap="round"
     stroke-linejoin="round"
     id="path10371" />
  <path
     d="M370.595 245H312.324C307.727 245 304 248.727 304 253.324V311.595C304 316.192 307.727 319.919 312.324 319.919H370.595C375.192 319.919 378.919 316.192 378.919 311.595V253.324C378.919 248.727 375.192 245 370.595 245Z"
     fill="#9AE6B4"
     stroke="#9AE6B4"
     stroke-width="2"
     stroke-linecap="round"
     stroke-linejoin="round"
     id="path10373" />
  <path
     d="M341.46 265.811V299.108"
     stroke="#2F855A"
     stroke-width="2"
     stroke-linecap="round"
     stroke-linejoin="round"
     id="path10375" />
  <path
     d="M324.811 282.46H358.108"
     stroke="#2F855A"
     stroke-width="2"
     stroke-linecap="round"
     stroke-linejoin="round"
     id="path10377" />
</svg>
