<svg width="507" height="389" viewBox="0 0 507 389" fill="none" xmlns="http://www.w3.org/2000/svg">
<path d="M217 135H290V164.003C290 166.21 288.214 168 285.997 168H221.003C218.792 168 217 166.202 217 164.003V135Z" fill="#CBD5E0"/>
<path d="M100 281H173V310.003C173 312.21 171.214 314 168.997 314H104.003C101.792 314 100 312.202 100 310.003V281Z" fill="#CBD5E0"/>
<path d="M217 281H290V310.003C290 312.21 288.214 314 285.997 314H221.003C218.792 314 217 312.202 217 310.003V281Z" fill="#CBD5E0"/>
<path d="M335 281H408V310.003C408 312.21 406.214 314 403.997 314H339.003C336.792 314 335 312.202 335 310.003V281Z" fill="#CBD5E0"/>
<path d="M217 77.9998C217 75.7908 218.786 74 221.003 74H285.997C288.208 74 290 75.7839 290 77.9998V142H217V77.9998ZM100 224.008C100 221.794 101.786 220 104.003 220H168.997C171.208 220 173 221.793 173 224.008V289H100V224.008ZM217 224.008C217 221.794 218.786 220 221.003 220H285.997C288.208 220 290 221.793 290 224.008V289H217V224.008ZM335 224.008C335 221.794 336.786 220 339.003 220H403.997C406.208 220 408 221.793 408 224.008V289H335V224.008Z" fill="#3282CE"/>
<path d="M370 220V215.866V198.991C370 197.895 369.102 197 367.994 197H142.006C140.903 197 140 197.896 140 199.001V220H133V195.004C133 192.241 135.241 190 137.998 190H372.002C374.762 190 377 192.239 377 195.008V204.512V220H370Z" fill="#CBD5E0"/>
<path d="M257 168H250V220H257V168Z" fill="#CBD5E0"/>
</svg>
