<svg width="507" height="389" viewBox="0 0 507 389" fill="none" xmlns="http://www.w3.org/2000/svg">
<path d="M287.678 279.992V297.904C287.678 298.9 287.574 299.261 287.379 299.626C287.184 299.99 286.899 300.275 286.534 300.47C286.17 300.665 285.809 300.769 284.813 300.769L111.5 300.769V277.128L284.813 277.128C285.809 277.128 286.17 277.231 286.534 277.426C286.899 277.621 287.184 277.907 287.379 278.271C287.574 278.635 287.678 278.996 287.678 279.992Z" fill="#CBD5E0"/>
<path fill-rule="evenodd" clip-rule="evenodd" d="M462.5 232.71V250.622C462.5 251.618 462.396 251.979 462.202 252.344C462.007 252.708 461.721 252.994 461.357 253.188C460.993 253.383 460.631 253.487 459.635 253.487L111.5 253.487V229.846L459.635 229.846C460.631 229.846 460.993 229.95 461.357 230.144C461.721 230.339 462.007 230.625 462.202 230.989C462.396 231.353 462.5 231.714 462.5 232.71Z" fill="white"/>
<path d="M416.423 185.429V203.34C416.423 204.336 416.319 204.697 416.124 205.062C415.929 205.426 415.644 205.712 415.28 205.906C414.915 206.101 414.554 206.205 413.558 206.205L111.5 206.205V182.564L413.558 182.564C414.554 182.564 414.915 182.668 415.28 182.862C415.644 183.057 415.929 183.343 416.124 183.707C416.319 184.071 416.423 184.432 416.423 185.429Z" fill="#CBD5E0"/>
<path d="M312.071 138.147V156.058C312.071 157.054 311.968 157.416 311.773 157.78C311.578 158.144 311.292 158.43 310.928 158.624C310.564 158.819 310.203 158.923 309.207 158.923L111.5 158.923V135.282L309.207 135.282C310.203 135.282 310.564 135.386 310.928 135.58C311.292 135.775 311.578 136.061 311.773 136.425C311.968 136.789 312.071 137.15 312.071 138.147Z" fill="#CBD5E0"/>
<path d="M363.569 90.8647V108.776C363.569 109.772 363.466 110.134 363.271 110.498C363.076 110.862 362.79 111.148 362.426 111.342C362.062 111.537 361.701 111.641 360.705 111.641L111.5 111.641V88L360.705 88C361.701 88 362.062 88.1037 362.426 88.2985C362.79 88.4932 363.076 88.779 363.271 89.1432C363.466 89.5074 363.569 89.8686 363.569 90.8647Z" fill="#CBD5E0"/>
</svg>
