<?xml version="1.0" encoding="UTF-8" standalone="no"?>
<svg
   width="507"
   height="389"
   viewBox="0 0 507 389"
   fill="none"
   version="1.1"
   id="svg4895"
   sodipodi:docname="uniflow-action.svg"
   inkscape:version="1.2.1 (9c6d41e410, 2022-07-14)"
   xmlns:inkscape="http://www.inkscape.org/namespaces/inkscape"
   xmlns:sodipodi="http://sodipodi.sourceforge.net/DTD/sodipodi-0.dtd"
   xmlns="http://www.w3.org/2000/svg"
   xmlns:svg="http://www.w3.org/2000/svg">
  <defs
     id="defs4899" />
  <sodipodi:namedview
     id="namedview4897"
     pagecolor="#ffffff"
     bordercolor="#000000"
     borderopacity="0.25"
     inkscape:showpageshadow="2"
     inkscape:pageopacity="0.0"
     inkscape:pagecheckerboard="0"
     inkscape:deskcolor="#d1d1d1"
     showgrid="false"
     inkscape:zoom="1.6527052"
     inkscape:cx="33.581307"
     inkscape:cy="166.39386"
     inkscape:window-width="3440"
     inkscape:window-height="1375"
     inkscape:window-x="0"
     inkscape:window-y="804"
     inkscape:window-maximized="1"
     inkscape:current-layer="svg4895" />
  <path
     d="M221.611 126.095H284.389V151.036C284.389 152.934 282.852 154.473 280.946 154.473H225.054C223.153 154.473 221.611 152.927 221.611 151.036V126.095Z"
     fill="#CBD5E0"
     id="path4875"
     style="fill:#aba8e1;fill-opacity:1" />
  <path
     d="M120.996 251.649H183.773V276.59C183.773 278.489 182.237 280.028 180.331 280.028H124.438C122.537 280.028 120.996 278.482 120.996 276.59V251.649Z"
     fill="#CBD5E0"
     id="path4877"
     style="fill:#aba8e1;fill-opacity:1" />
  <path
     d="M221.611 251.649H284.389V276.59C284.389 278.489 282.852 280.028 280.946 280.028H225.054C223.153 280.028 221.611 278.482 221.611 276.59V251.649Z"
     fill="#CBD5E0"
     id="path4879"
     style="fill:#aba8e1;fill-opacity:1" />
  <path
     d="M323.087 251.649H385.864V276.59C385.864 278.489 384.328 280.028 382.422 280.028H326.529C324.628 280.028 323.087 278.482 323.087 276.59V251.649Z"
     fill="#CBD5E0"
     id="path4881"
     style="fill:#aba8e1;fill-opacity:1" />
  <path
     d="M221.611 77.0768C221.611 75.1771 223.148 73.6371 225.054 73.6371H280.946C282.847 73.6371 284.389 75.1712 284.389 77.0768V132.114H221.611V77.0768ZM120.996 202.638C120.996 200.734 122.532 199.191 124.438 199.191H180.331C182.232 199.191 183.773 200.733 183.773 202.638V258.529H120.996V202.638ZM221.611 202.638C221.611 200.734 223.148 199.191 225.054 199.191H280.946C282.847 199.191 284.389 200.733 284.389 202.638V258.529H221.611V202.638ZM323.087 202.638C323.087 200.734 324.623 199.191 326.529 199.191H382.422C384.323 199.191 385.864 200.733 385.864 202.638V258.529H323.087V202.638Z"
     fill="#3282CE"
     id="path4883"
     style="fill:#4842bd;fill-opacity:1" />
  <path
     d="M353.185 199.191V195.636V181.124C353.185 180.182 352.413 179.412 351.46 179.412H157.119C156.171 179.412 155.394 180.183 155.394 181.133V199.191H149.375V177.696C149.375 175.319 151.302 173.393 153.673 173.393H354.907C357.281 173.393 359.205 175.318 359.205 177.699V185.872V199.191H353.185Z"
     fill="#CBD5E0"
     id="path4885"
     style="fill:#aba8e1;fill-opacity:1" />
  <path
     d="M256.01 154.473H249.99V199.191H256.01V154.473Z"
     fill="#CBD5E0"
     id="path4887"
     style="fill:#aba8e1;fill-opacity:1" />
  <path
     d="M415.595 243H357.324C352.727 243 349 246.727 349 251.324V309.595C349 314.192 352.727 317.919 357.324 317.919H415.595C420.192 317.919 423.919 314.192 423.919 309.595V251.324C423.919 246.727 420.192 243 415.595 243Z"
     fill="#9AE6B4"
     stroke="#9AE6B4"
     stroke-width="2"
     stroke-linecap="round"
     stroke-linejoin="round"
     id="path4889" />
  <path
     d="M386.46 263.811V297.108"
     stroke="#2F855A"
     stroke-width="2"
     stroke-linecap="round"
     stroke-linejoin="round"
     id="path4891" />
  <path
     d="M369.811 280.46H403.108"
     stroke="#2F855A"
     stroke-width="2"
     stroke-linecap="round"
     stroke-linejoin="round"
     id="path4893" />
</svg>
