<?xml version="1.0" encoding="UTF-8" standalone="no"?>
<svg
   width="507"
   height="389"
   viewBox="0 0 507 389"
   fill="none"
   version="1.1"
   id="svg8051"
   sodipodi:docname="uniflow-executed.svg"
   inkscape:version="1.2.1 (9c6d41e410, 2022-07-14)"
   xmlns:inkscape="http://www.inkscape.org/namespaces/inkscape"
   xmlns:sodipodi="http://sodipodi.sourceforge.net/DTD/sodipodi-0.dtd"
   xmlns="http://www.w3.org/2000/svg"
   xmlns:svg="http://www.w3.org/2000/svg">
  <defs
     id="defs8055" />
  <sodipodi:namedview
     id="namedview8053"
     pagecolor="#ffffff"
     bordercolor="#000000"
     borderopacity="0.25"
     inkscape:showpageshadow="2"
     inkscape:pageopacity="0.0"
     inkscape:pagecheckerboard="0"
     inkscape:deskcolor="#d1d1d1"
     showgrid="false"
     inkscape:zoom="2.3372781"
     inkscape:cx="181.19367"
     inkscape:cy="194.67089"
     inkscape:window-width="3440"
     inkscape:window-height="1375"
     inkscape:window-x="0"
     inkscape:window-y="804"
     inkscape:window-maximized="1"
     inkscape:current-layer="svg8051" />
  <path
     d="M416 279.908V298.092C416 299.103 415.821 299.47 415.485 299.839C415.149 300.209 414.656 300.499 414.027 300.697C413.399 300.895 412.776 301 411.057 301L112 301V277L411.057 277C412.776 277 413.399 277.105 414.027 277.303C414.656 277.501 415.149 277.791 415.485 278.161C415.821 278.53 416 278.897 416 279.908Z"
     fill="#CBD5E0"
     id="path8031"
     style="fill:#aba8e1;fill-opacity:1" />
  <path
     fill-rule="evenodd"
     clip-rule="evenodd"
     d="M416 232.787V250.213C416 251.182 415.91 251.534 415.741 251.888C415.572 252.242 415.323 252.52 415.007 252.71C414.69 252.899 414.376 253 413.511 253L111 253V230L413.511 230C414.376 230 414.69 230.101 415.007 230.29C415.323 230.48 415.572 230.758 415.741 231.112C415.91 231.466 416 231.818 416 232.787Z"
     fill="white"
     id="path8033" />
  <path
     d="M416.423 185.429V203.34C416.423 204.336 416.319 204.697 416.124 205.062C415.93 205.426 415.644 205.712 415.28 205.906C414.915 206.101 414.554 206.205 413.558 206.205L111.5 206.205V182.564L413.558 182.564C414.554 182.564 414.915 182.668 415.28 182.862C415.644 183.057 415.93 183.343 416.124 183.707C416.319 184.071 416.423 184.432 416.423 185.429Z"
     fill="#CBD5E0"
     id="path8035"
     style="fill:#aba8e1;fill-opacity:1" />
  <path
     d="M416 137.908V156.092C416 157.103 415.903 157.47 415.722 157.839C415.54 158.209 415.274 158.499 414.934 158.697C414.595 158.895 414.258 159 413.329 159L229 159V135L413.329 135C414.258 135 414.595 135.105 414.934 135.303C415.274 135.501 415.54 135.791 415.722 136.161C415.903 136.53 416 136.897 416 137.908Z"
     fill="#CBD5E0"
     id="path8037"
     style="fill:#aba8e1;fill-opacity:1" />
  <path
     d="M416 90.9082V109.092C416 110.103 415.923 110.47 415.779 110.839C415.634 111.209 415.422 111.499 415.152 111.697C414.882 111.895 414.614 112 413.875 112L229 112V88L413.875 88C414.614 88 414.882 88.1053 415.152 88.303C415.422 88.5007 415.634 88.7909 415.779 89.1606C415.923 89.5302 416 89.8969 416 90.9082Z"
     fill="#CBD5E0"
     id="path8039"
     style="fill:#aba8e1;fill-opacity:1" />
  <path
     d="M156 67.3333L114.333 88.1667L156 109L197.667 88.1667L156 67.3333Z"
     stroke="#3282CE"
     stroke-width="8.33333"
     stroke-linecap="round"
     stroke-linejoin="round"
     id="path8041"
     style="stroke:#4842bd;stroke-opacity:1" />
  <path
     d="M114.333 129.833L156 150.667L197.667 129.833"
     stroke="#3282CE"
     stroke-width="8.33333"
     stroke-linecap="round"
     stroke-linejoin="round"
     id="path8043"
     style="stroke:#4842bd;stroke-opacity:1" />
  <path
     d="M114.333 109L156 129.833L197.667 109"
     stroke="#3282CE"
     stroke-width="8.33333"
     stroke-linecap="round"
     stroke-linejoin="round"
     id="path8045"
     style="stroke:#4842bd;stroke-opacity:1" />
  <path
     d="M445.595 264H387.324C382.727 264 379 267.727 379 272.324V330.595C379 335.192 382.727 338.919 387.324 338.919H445.595C450.192 338.919 453.919 335.192 453.919 330.595V272.324C453.919 267.727 450.192 264 445.595 264Z"
     fill="#9AE6B4"
     stroke="#9AE6B4"
     stroke-width="2"
     stroke-linecap="round"
     stroke-linejoin="round"
     id="path8047" />
  <path
     d="M431 293.5L411.75 312.75L403 304"
     stroke="#2F855A"
     stroke-width="2"
     stroke-linecap="round"
     stroke-linejoin="round"
     id="path8049" />
</svg>
