<svg width="507" height="389" viewBox="0 0 507 389" fill="none" xmlns="http://www.w3.org/2000/svg">
<path d="M323.4 106H182.6C172.88 106 165 113.88 165 123.6V158.8C165 168.52 172.88 176.4 182.6 176.4H323.4C333.12 176.4 341 168.52 341 158.8V123.6C341 113.88 333.12 106 323.4 106Z" fill="#3282CE" stroke="#3282CE" stroke-width="2" stroke-linecap="round" stroke-linejoin="round"/>
<path d="M323.4 211.6H182.6C172.88 211.6 165 219.48 165 229.2V264.4C165 274.12 172.88 282 182.6 282H323.4C333.12 282 341 274.12 341 264.4V229.2C341 219.48 333.12 211.6 323.4 211.6Z" fill="#3282CE" stroke="#3282CE" stroke-width="2" stroke-linecap="round" stroke-linejoin="round"/>
<path d="M200.2 141.2H200.288" stroke="#9AE6B4" stroke-width="6" stroke-linecap="round" stroke-linejoin="round"/>
<path d="M200.2 246.8H200.288" stroke="#9AE6B4" stroke-width="6" stroke-linecap="round" stroke-linejoin="round"/>
<path d="M370.595 245H312.324C307.727 245 304 248.727 304 253.324V311.595C304 316.192 307.727 319.919 312.324 319.919H370.595C375.192 319.919 378.919 316.192 378.919 311.595V253.324C378.919 248.727 375.192 245 370.595 245Z" fill="#9AE6B4" stroke="#9AE6B4" stroke-width="2" stroke-linecap="round" stroke-linejoin="round"/>
<path d="M341.46 265.811V299.108" stroke="#2F855A" stroke-width="2" stroke-linecap="round" stroke-linejoin="round"/>
<path d="M324.811 282.46H358.108" stroke="#2F855A" stroke-width="2" stroke-linecap="round" stroke-linejoin="round"/>
</svg>
